<svg version="1.1" preserveAspectRatio="none" xmlns="http://www.w3.org/2000/svg" width="500" height="500" viewBox="0 0 500 500"><rect width="100%" height="100%" fill="#012B28" fill-opacity="1"/><svg viewBox="739.159 494.4943 322.102 206.6667" width="333" height="213.65906172578872" x="83.5px" y="143.1705px" xmlns="http://www.w3.org/2000/svg" xmlns:xlink="http://www.w3.org/1999/xlink" preserveAspectRatio="none"><defs></defs><style>.companyName {fill:#EBB42C;fill-opacity:1;}.icon2 {fill:#E7240E;fill-opacity:1;}.icon3 {fill:#B47049;fill-opacity:1;}.icon3-str {stroke:#B47049;stroke-opacity:1;}</style><g opacity="1" transform="rotate(0 739.159 661.161)">
<svg width="322.102" height="40" x="739.159" y="661.161" version="1.1" preserveAspectRatio="none" viewBox="5.2 -28.48 233.20000000000002 28.96">
  <g transform="matrix(1 0 0 1 0 0)" class="companyName"><path id="id-D6z1nYkh6" d="M14.88 0L5.20 0L5.20-28L14.40-28Q17.72-28 20.48-26.94Q23.24-25.88 25.22-24.02Q27.20-22.16 28.30-19.60Q29.40-17.04 29.40-14.08L29.40-14.08Q29.40-11 28.26-8.42Q27.12-5.84 25.14-3.96Q23.16-2.08 20.52-1.04Q17.88 0 14.88 0L14.88 0ZM8.84-26.24L8.84-1.76L13.24-1.76Q16.52-1.76 18.82-2.86Q21.12-3.96 22.60-5.72Q24.08-7.48 24.76-9.66Q25.44-11.84 25.44-14L25.44-14Q25.44-16.40 24.64-18.62Q23.84-20.84 22.30-22.54Q20.76-24.24 18.48-25.24Q16.20-26.24 13.24-26.24L13.24-26.24L8.84-26.24Z M69.48-28L51.40-28L51.40 0L69.48 0L69.48-2.20L55.04-2.20L55.04-13.92L67.44-13.92L67.44-15.76L55.04-15.76L55.04-25.80L69.48-25.80L69.48-28Z M109.56-28L91.48-28L91.48 0L95.12 0L95.12-13.92L107.52-13.92L107.52-15.76L95.12-15.76L95.12-25.80L109.56-25.80L109.56-28Z M136.80-28L133.16-28L133.16 0L136.80 0L136.80-28Z M188.40-28L186.56-28L186.56-6.60L186.40-6.60L164.20-28.48L164.00-28.48L164.00 0L165.84 0L165.84-21.40L166.00-21.40L188.20 0.48L188.40 0.48L188.40-28Z M238.40-28L236.56-28L236.56-6.60L236.40-6.60L214.20-28.48L214.00-28.48L214.00 0L215.84 0L215.84-21.40L216.00-21.40L238.20 0.48L238.40 0.48L238.40-28Z"/></g>
</svg>
</g><g opacity="1" transform="rotate(0 850.21 494.4943)">
<svg width="100" height="106.6667" x="850.21" y="494.4943" version="1.1" preserveAspectRatio="none" viewBox="25 20 150 160">
  <g transform="matrix(1 0 0 1 0 0)"><g><path d="M100.1 20L25.2 56.4v7.9l74.9-36.4L175 64.3v-7.9L100.1 20z" data-color="1" class="companyName"></path><path d="M25.2 83.1V91l74.9-36.4L175 91v-7.9l-74.9-36.4-74.9 36.4z" data-color="1" class="companyName"></path><path d="M25.2 109.7v7.9l74.9-36.4 74.9 36.4v-7.9l-74.9-36.4-74.9 36.4z" data-color="1" class="companyName"></path><path d="M25.2 136.4v7.9l74.9-36.4 74.9 36.4v-7.9L100.1 100c0-.1-74.9 36.4-74.9 36.4z" data-color="1" class="companyName"></path><path d="M25 56.4v8l75.1 35.5v-8L25 56.4z" data-color="2" class="icon2"></path><path d="M25 91l75.1 35.5v-8L25 83v8z" data-color="2" class="icon2"></path><path d="M25 117.9l75.1 35.5v-8L25 109.9v8z" data-color="2" class="icon2"></path><path d="M25 144.5l75.1 35.5v-8L25 136.4v8.1z" data-color="2" class="icon2"></path></g></g>
</svg>
</g></svg></svg>